<svg width="69" height="69" viewBox="0 0 69 69" fill="none" xmlns="http://www.w3.org/2000/svg">
<rect width="69" height="69" rx="17.25" fill="url(#paint0_linear_148_458)"/>
<path d="M22.7291 56.0625C21.6457 56.0625 21.104 56.0625 20.648 56.0139C16.6083 55.5831 13.4169 52.3917 12.9861 48.352C12.9375 47.896 12.9375 47.3543 12.9375 46.2709V45.7842C12.9375 44.7008 12.9375 44.1591 12.9861 43.7031C13.4169 39.6634 16.6083 36.472 20.648 36.0413C21.104 35.9926 21.6457 35.9926 22.7291 35.9926V35.9926V35.9926C23.8125 35.9926 24.3542 35.9926 24.8101 36.0413C28.8498 36.472 32.0413 39.6634 32.472 43.7031C32.5206 44.1591 32.5206 44.7008 32.5206 45.7842V46.2709C32.5206 47.3543 32.5206 47.896 32.472 48.352C32.0413 52.3917 28.8498 55.5831 24.8101 56.0139C24.3542 56.0625 23.8125 56.0625 22.7291 56.0625V56.0625ZM46.2604 56.0625C45.1672 56.0625 44.6206 56.0625 44.1606 56.013C40.1275 55.579 36.9418 52.3933 36.5078 48.3602C36.4583 47.9002 36.4583 47.3536 36.4583 46.2604V44.4556C36.4583 41.6822 36.4583 40.2955 36.1423 39.1605C35.3319 36.2496 33.0574 33.9751 30.1466 33.1648C29.0115 32.8487 27.6248 32.8487 24.8514 32.8487H22.8931C21.6573 32.8487 21.0393 32.8487 20.52 32.7855C16.5828 32.3061 13.4801 29.2034 13.0007 25.2663C12.9375 24.7469 12.9375 24.129 12.9375 22.8931V22.8931C12.9375 21.6573 12.9375 21.0393 13.0007 20.52C13.4801 16.5828 16.5828 13.4801 20.52 13.0007C21.0393 12.9375 21.6573 12.9375 22.8931 12.9375H38.8125C46.9442 12.9375 51.0101 12.9375 53.5363 15.4637C56.0625 17.9899 56.0625 22.0558 56.0625 30.1875V46.2604C56.0625 47.3536 56.0625 47.9002 56.013 48.3602C55.579 52.3933 52.3933 55.579 48.3602 56.013C47.9002 56.0625 47.3536 56.0625 46.2604 56.0625V56.0625Z" fill="#1A1A1A"/>
<defs>
<linearGradient id="paint0_linear_148_458" x1="0" y1="34.5" x2="69" y2="34.5" gradientUnits="userSpaceOnUse">
<stop stop-color="#84FAB0"/>
<stop offset="1" stop-color="#8FD3F4"/>
</linearGradient>
</defs>
</svg>
