<svg width="104" height="104" viewBox="0 0 104 104" fill="none" xmlns="http://www.w3.org/2000/svg">
<path d="M51.9998 8.66675C75.932 8.66675 95.3332 28.0677 95.3332 52.0001C95.3332 75.9322 75.932 95.3334 51.9998 95.3334C28.0675 95.3334 8.6665 75.9322 8.6665 52.0001C8.6665 28.0677 28.0675 8.66675 51.9998 8.66675ZM51.9998 15.1667C31.6573 15.1667 15.1665 31.6576 15.1665 52.0001C15.1665 72.3425 31.6573 88.8334 51.9998 88.8334C72.3422 88.8334 88.8332 72.3425 88.8332 52.0001C88.8332 31.6576 72.3422 15.1667 51.9998 15.1667ZM46.5832 58.2371L65.9519 38.8687C67.2211 37.5995 69.2786 37.5995 70.5478 38.8687C71.7018 40.0225 71.8066 41.828 70.8624 43.1003L70.5478 43.4647L48.8811 65.1314C47.7276 66.2854 45.9219 66.3902 44.6496 65.446L44.2852 65.1314L33.4517 54.2981C32.1825 53.0288 32.1825 50.9714 33.4517 49.7021C34.6056 48.5482 36.4111 48.4433 37.6834 49.3875L38.0479 49.7021L46.5832 58.2371L65.9519 38.8687L46.5832 58.2371Z" fill="url(#paint0_linear_423_666)"/>
<defs>
<linearGradient id="paint0_linear_423_666" x1="8.6665" y1="52.0001" x2="95.3332" y2="52.0001" gradientUnits="userSpaceOnUse">
<stop stop-color="#84FAB0"/>
<stop offset="1" stop-color="#8FD3F4"/>
</linearGradient>
</defs>
</svg>
