<svg width="32" height="32" viewBox="0 0 32 32" fill="none" xmlns="http://www.w3.org/2000/svg">
<path d="M16 2.66669C23.3637 2.66669 29.3333 8.63622 29.3333 16C29.3333 23.3638 23.3637 29.3334 16 29.3334C8.63616 29.3334 2.66663 23.3638 2.66663 16C2.66663 8.63622 8.63616 2.66669 16 2.66669ZM16 4.66669C9.74073 4.66669 4.66663 9.74079 4.66663 16C4.66663 22.2592 9.74073 27.3334 16 27.3334C22.2592 27.3334 27.3333 22.2592 27.3333 16C27.3333 9.74079 22.2592 4.66669 16 4.66669ZM14.3333 17.9191L20.2929 11.9596C20.6834 11.5691 21.3165 11.5691 21.707 11.9596C22.0621 12.3146 22.0944 12.8702 21.8038 13.2616L21.707 13.3738L15.0404 20.0404C14.6854 20.3955 14.1298 20.4278 13.7384 20.1372L13.6262 20.0404L10.2929 16.7071C9.90233 16.3166 9.90233 15.6835 10.2929 15.293C10.6479 14.9379 11.2034 14.9056 11.5949 15.1962L11.7071 15.293L14.3333 17.9191L20.2929 11.9596L14.3333 17.9191Z" fill="url(#paint0_linear_280_619)"/>
<defs>
<linearGradient id="paint0_linear_280_619" x1="2.66663" y1="16" x2="29.3333" y2="16" gradientUnits="userSpaceOnUse">
<stop stop-color="#84FAB0"/>
<stop offset="1" stop-color="#8FD3F4"/>
</linearGradient>
</defs>
</svg>
