<svg width="20" height="20" viewBox="0 0 20 20" fill="none" xmlns="http://www.w3.org/2000/svg">
<path d="M3.66417 3.79482L3.72468 3.72472C3.94658 3.50282 4.29379 3.48266 4.53847 3.6642L4.60857 3.72472L9.99996 9.11582L15.3914 3.72472C15.6355 3.48064 16.0311 3.48064 16.2752 3.72472C16.5193 3.96879 16.5193 4.36452 16.2752 4.6086L10.8841 9.99999L16.2752 15.3914C16.4971 15.6132 16.5173 15.9605 16.3357 16.2052L16.2752 16.2752C16.0534 16.4972 15.7061 16.5173 15.4615 16.3357L15.3914 16.2752L9.99996 10.8842L4.60857 16.2752C4.36449 16.5193 3.96876 16.5193 3.72468 16.2752C3.48061 16.0312 3.48061 15.6355 3.72468 15.3914L9.11579 9.99999L3.72468 4.6086C3.50279 4.38671 3.48263 4.03949 3.66417 3.79482L3.72468 3.72472L3.66417 3.79482Z" fill="#1A1A1A"/>
</svg>
