<svg width="21" height="20" viewBox="0 0 21 20" fill="none" xmlns="http://www.w3.org/2000/svg">
<path d="M18.0253 2.47498C19.1899 3.63953 19.1899 5.52764 18.0253 6.69219L8.05171 16.6658C7.82098 16.8965 7.53403 17.0631 7.21923 17.1489L2.95615 18.3116C2.48959 18.4388 2.06149 18.0107 2.18873 17.5442L3.35139 13.2811C3.43724 12.9663 3.60376 12.6793 3.83449 12.4486L13.8081 2.47498C14.9726 1.31042 16.8608 1.31042 18.0253 2.47498ZM13.0002 5.05073L4.71838 13.3325C4.64147 13.4094 4.58596 13.505 4.55734 13.61L3.68247 16.8178L6.89034 15.9429C6.99527 15.9143 7.09092 15.8588 7.16783 15.7819L15.4494 7.4999L13.0002 5.05073ZM14.692 3.35886L13.8835 4.16657L16.3327 6.61657L17.1415 5.80831C17.8178 5.13192 17.8178 4.03526 17.1415 3.35886C16.465 2.68247 15.3684 2.68247 14.692 3.35886Z" fill="#1A1A1A"/>
</svg>
