<svg width="20" height="20" viewBox="0 0 20 20" fill="none" xmlns="http://www.w3.org/2000/svg">
<path d="M4.37502 3.33334H15.625C17.0692 3.33334 18.2494 4.46372 18.3291 5.88799L18.3334 6.04168V13.9583C18.3334 15.4025 17.2029 16.5827 15.7787 16.6624L15.625 16.6667H4.37502C2.93083 16.6667 1.75065 15.5363 1.67097 14.112L1.66669 13.9583V6.04168C1.66669 4.59749 2.79706 3.4173 4.22134 3.33763L4.37502 3.33334H15.625H4.37502ZM17.0834 7.81084L10.2911 11.3864C10.1349 11.4686 9.9526 11.4803 9.78902 11.4217L9.70894 11.3864L2.91669 7.81168V13.9583C2.91669 14.7235 3.50595 15.351 4.25541 15.4118L4.37502 15.4167H15.625C16.3902 15.4167 17.0177 14.8274 17.0785 14.0779L17.0834 13.9583V7.81084ZM15.625 4.58334H4.37502C3.60988 4.58334 2.98236 5.1726 2.92152 5.92207L2.91669 6.04168V6.39918L10 10.1271L17.0834 6.39834V6.04168C17.0834 5.27654 16.4941 4.64902 15.7446 4.58818L15.625 4.58334Z" fill="#1A1A1A"/>
</svg>
