<svg width="72" height="72" viewBox="0 0 72 72" fill="none" xmlns="http://www.w3.org/2000/svg">
<path d="M35.9996 5.99414C52.5707 5.99414 66.0041 19.4277 66.0041 35.9988C66.0041 52.5699 52.5707 66.0033 35.9996 66.0033C19.4284 66.0033 5.99487 52.5699 5.99487 35.9988C5.99487 19.4277 19.4284 5.99414 35.9996 5.99414ZM35.9996 10.4941C21.9137 10.4941 10.4949 21.913 10.4949 35.9988C10.4949 50.0847 21.9137 61.5033 35.9996 61.5033C50.0852 61.5033 61.5041 50.0847 61.5041 35.9988C61.5041 21.913 50.0852 10.4941 35.9996 10.4941ZM35.9996 40.4913C40.8932 40.4913 45.4805 42.456 48.8426 45.8775C49.7135 46.764 49.7012 48.1884 48.8147 49.0593C47.9282 49.9302 46.5038 49.9179 45.6329 49.0314C43.1084 46.4622 39.6737 44.9913 35.9996 44.9913C32.3174 44.9913 28.8756 46.4688 26.35 49.0479C25.4805 49.9359 24.056 49.9509 23.1682 49.0815C22.2803 48.2121 22.2654 46.7874 23.1348 45.8997C26.4984 42.4647 31.0949 40.4913 35.9996 40.4913ZM27.0009 26.2507C29.0708 26.2507 30.7487 27.9287 30.7487 29.9986C30.7487 32.0685 29.0708 33.7464 27.0009 33.7464C24.931 33.7464 23.253 32.0685 23.253 29.9986C23.253 27.9287 24.931 26.2507 27.0009 26.2507ZM45.0008 26.2507C47.0708 26.2507 48.7487 27.9287 48.7487 29.9986C48.7487 32.0685 47.0708 33.7464 45.0008 33.7464C42.9308 33.7464 41.2529 32.0685 41.2529 29.9986C41.2529 27.9287 42.9308 26.2507 45.0008 26.2507Z" fill="#B3B3B3"/>
</svg>
