<svg width="96" height="60" viewBox="0 0 96 60" fill="none" xmlns="http://www.w3.org/2000/svg">
<g clip-path="url(#clip0_426_670)">
<path d="M48 59.5546C74.5097 59.5546 96 54.8885 96 49.1326C96 43.3766 74.5097 38.7105 48 38.7105C21.4903 38.7105 0 43.3766 0 49.1326C0 54.8885 21.4903 59.5546 48 59.5546Z" fill="#ECEDF0"/>
<path d="M82.5 20.4979L67.281 3.37299C66.5505 2.20572 65.484 1.5 64.3605 1.5H31.6395C30.516 1.5 29.4495 2.20572 28.719 3.3715L13.5 20.4994V34.255H82.5V20.4979Z" stroke="#DADCE0" stroke-width="1.5"/>
<path d="M62.4195 25.2191C62.4195 22.8295 63.9105 20.8568 65.76 20.8553H82.5V47.8588C82.5 51.0197 80.52 53.6103 78.075 53.6103H17.925C15.48 53.6103 13.5 51.0182 13.5 47.8588V20.8553H30.24C32.0895 20.8553 33.5805 22.8251 33.5805 25.2147V25.2474C33.5805 27.6371 35.088 29.5666 36.936 29.5666H59.064C60.912 29.5666 62.4195 27.6192 62.4195 25.2296V25.2191V25.2191Z" fill="#F9F9FA" stroke="#DADCE0" stroke-width="1.5"/>
</g>
<defs>
<clipPath id="clip0_426_670">
<rect width="96" height="60" fill="white"/>
</clipPath>
</defs>
</svg>
