<svg width="80" height="80" viewBox="0 0 80 80" fill="none" xmlns="http://www.w3.org/2000/svg">
<path d="M13.3333 22.4938C13.3333 18.3512 16.6913 14.9929 20.8337 14.9929H50.8353C54.9776 14.9929 58.3359 18.3512 58.3359 22.4938V70.833C58.3359 71.7284 57.8573 72.5553 57.0809 73.001C56.3046 73.447 55.3493 73.444 54.5759 72.9927L35.8346 62.0597L17.0932 72.9927C16.3199 73.444 15.3645 73.447 14.5882 73.001C13.8119 72.5553 13.3333 71.7284 13.3333 70.833V22.4938ZM20.8337 19.9935C19.4529 19.9935 18.3335 21.1129 18.3335 22.4938V66.48L34.5749 57.0054C35.3533 56.551 36.3159 56.551 37.0943 57.0054L53.3356 66.48V22.4938C53.3356 21.1129 52.2163 19.9935 50.8353 19.9935H20.8337ZM50.8323 6.66669C59.5773 6.66669 66.6666 13.7564 66.6666 22.502V62.0774C66.6666 63.458 65.5473 64.5777 64.1666 64.5777C62.7856 64.5777 61.6663 63.458 61.6663 62.0774V22.502C61.6663 16.5181 56.8159 11.6673 50.8323 11.6673H22.1228C22.1228 11.6673 22.5005 9.81132 24.7792 8.06495C26.6674 6.66669 28.6727 6.66669 28.6727 6.66669H50.8323Z" fill="#B3B3B3"/>
</svg>
