<svg width="71" height="24" viewBox="0 0 71 24" fill="none" xmlns="http://www.w3.org/2000/svg">
<g clip-path="url(#clip0_447_721)">
<path fill-rule="evenodd" clip-rule="evenodd" d="M47.0147 11.968C47.0147 18.5777 41.6769 23.936 35.0925 23.936C28.508 23.936 23.1703 18.5777 23.1703 11.968C23.1703 5.35826 28.508 0 35.0925 0C41.6769 0 47.0147 5.35826 47.0147 11.968ZM12.2456 1.13993C12.4641 0.76 13.0104 0.76 13.2289 1.13993L25.3976 22.2977C25.6161 22.6776 25.3429 23.1525 24.9059 23.1525H0.568571C0.131536 23.1525 -0.141609 22.6776 0.0769076 22.2977L12.2456 1.13993ZM49.7104 0.712263C49.0833 0.712263 48.5749 1.22257 48.5749 1.85207V22.0837C48.5749 22.7132 49.0833 23.2236 49.7104 23.2236H69.8646C70.4917 23.2236 71.0001 22.7132 71.0001 22.0837V1.85207C71.0001 1.22257 70.4917 0.712263 69.8646 0.712263H49.7104Z" fill="#1A1A1A"/>
</g>
<defs>
<clipPath id="clip0_447_721">
<rect width="71" height="24" fill="white"/>
</clipPath>
</defs>
</svg>
