<svg width="72" height="72" viewBox="0 0 72 72" fill="none" xmlns="http://www.w3.org/2000/svg">
<path d="M35.9998 0C22.648 0 11.7854 10.8626 11.7854 24.2144V70.5658C11.7854 71.3579 12.4275 72 13.2196 72H58.78C59.572 72 60.2143 71.3579 60.2143 70.5658V24.2144C60.2143 10.8626 49.3517 0 35.9998 0ZM57.3457 69.1315H52.779V59.4655C52.779 58.6734 52.1368 58.0313 51.3448 58.0313C50.5528 58.0313 49.9105 58.6734 49.9105 59.4655V69.1315H45.1066V53.8633C45.1066 53.0712 44.4644 52.4291 43.6724 52.4291C42.8804 52.4291 42.2382 53.0712 42.2382 53.8633V69.1315H37.4343V59.4655C37.4343 58.6734 36.792 58.0313 36 58.0313C35.2079 58.0313 34.5658 58.6734 34.5658 59.4655V69.1315H29.7619V53.8633C29.7619 53.0712 29.1198 52.4291 28.3277 52.4291C27.5355 52.4291 26.8934 53.0712 26.8934 53.8633V69.1315H22.0894V59.4655C22.0894 58.6734 21.4473 58.0313 20.6552 58.0313C19.863 58.0313 19.2209 58.6734 19.2209 59.4655V69.1315H14.6543V24.2144C14.6544 12.4442 24.2301 2.86847 36.0003 2.86847C47.7705 2.86847 57.3462 12.4442 57.3462 24.2144V69.1315H57.3457Z" fill="#B3B3B3"/>
<path d="M51.3449 52.9243C50.5529 52.9243 49.9106 53.5664 49.9106 54.3585V55.0894C49.9106 55.8815 50.5529 56.5236 51.3449 56.5236C52.1369 56.5236 52.7791 55.8815 52.7791 55.0894V54.3585C52.7791 53.5664 52.1369 52.9243 51.3449 52.9243Z" fill="#B3B3B3"/>
<path d="M32.8361 26.8933H19.0732C18.281 26.8933 17.6389 27.5354 17.6389 28.3275C17.6389 32.9129 21.3693 36.6433 25.9546 36.6433C30.54 36.6433 34.2704 32.9129 34.2704 28.3275C34.2704 27.5354 33.6283 26.8933 32.8361 26.8933ZM25.9545 33.7748C23.4473 33.7748 21.33 32.0717 20.6989 29.7619H31.2102C30.5791 32.0717 28.462 33.7748 25.9545 33.7748Z" fill="#B3B3B3"/>
<path d="M52.9267 26.8933H39.1637C38.3716 26.8933 37.7295 27.5354 37.7295 28.3275C37.7295 32.9129 41.46 36.6433 46.0452 36.6433C50.6304 36.6433 54.3609 32.9129 54.3609 28.3275C54.3611 27.5354 53.7187 26.8933 52.9267 26.8933ZM46.0453 33.7748C43.538 33.7748 41.4209 32.0717 40.7896 29.7619H51.3011C50.6699 32.0717 48.5527 33.7748 46.0453 33.7748Z" fill="#B3B3B3"/>
</svg>
