<svg width="20" height="20" viewBox="0 0 20 20" fill="none" xmlns="http://www.w3.org/2000/svg">
<path d="M10.6832 4.64927L9.99933 5.33469L9.31325 4.64865C7.56406 2.89943 4.72801 2.89943 2.97879 4.64865C1.22956 6.39787 1.22956 9.23392 2.97879 10.9832L9.55825 17.5626C9.80233 17.8067 10.1981 17.8067 10.4422 17.5626L17.0267 10.9819C18.772 9.22692 18.775 6.39881 17.0255 4.64927C15.2731 2.89686 12.4357 2.89686 10.6832 4.64927ZM16.1403 10.1005L10.0002 16.2368L3.86267 10.0993C2.6016 8.83817 2.6016 6.7936 3.86267 5.53253C5.12374 4.27146 7.16833 4.27146 8.42941 5.53253L9.56058 6.66373C9.80883 6.91196 10.2127 6.90712 10.4549 6.65303L11.5672 5.53315C12.8314 4.2689 14.8773 4.2689 16.1416 5.53315C17.403 6.79453 17.4008 8.83308 16.1403 10.1005Z" fill="#212529"/>
</svg>
