<svg width="104" height="104" viewBox="0 0 104 104" fill="none" xmlns="http://www.w3.org/2000/svg">
<path d="M88.4002 75.4001V54.0816C90.2607 53.1306 92.0032 51.9817 93.6002 50.6628V75.4001C93.6002 82.5797 87.7798 88.4001 80.6002 88.4001H23.4001C16.2205 88.4001 10.4001 82.5797 10.4001 75.4001V33.8001C10.4001 26.6204 16.2205 20.8001 23.4001 20.8001H47.8767C47.4027 22.4759 47.0777 24.2143 46.9167 26.0001H23.4001C19.0923 26.0001 15.6001 29.4922 15.6001 33.8001V35.3705L52.0001 56.7836L59.4954 52.3734C61.1833 53.505 62.9987 54.4612 64.9149 55.2168L53.3183 62.0413C52.6403 62.4401 51.8265 62.5067 51.1032 62.2404L50.6819 62.0413L15.6001 41.4077V75.4001C15.6001 79.7078 19.0923 83.2001 23.4001 83.2001H80.6002C84.9078 83.2001 88.4002 79.7078 88.4002 75.4001ZM75.4002 52.0001C88.3237 52.0001 98.8002 41.5235 98.8002 28.6001C98.8002 15.6766 88.3237 5.20007 75.4002 5.20007C62.4766 5.20007 52.0001 15.6766 52.0001 28.6001C52.0001 41.5235 62.4766 52.0001 75.4002 52.0001ZM87.6389 22.6385L72.0389 38.2385C71.0233 39.2539 69.377 39.2539 68.3614 38.2385L63.1614 33.0385C62.1464 32.0232 62.1464 30.377 63.1614 29.3616C64.177 28.3462 65.8233 28.3462 66.8389 29.3616L70.2001 32.7231L83.9614 18.9616C84.977 17.9462 86.6233 17.9462 87.6389 18.9616C88.6539 19.977 88.6539 21.6232 87.6389 22.6385Z" fill="url(#paint0_linear_424_659)"/>
<defs>
<linearGradient id="paint0_linear_424_659" x1="10.4001" y1="46.8001" x2="98.8001" y2="46.8001" gradientUnits="userSpaceOnUse">
<stop stop-color="#84FAB0"/>
<stop offset="1" stop-color="#8FD3F4"/>
</linearGradient>
</defs>
</svg>
