<svg width="20" height="20" viewBox="0 0 20 20" fill="none" xmlns="http://www.w3.org/2000/svg">
<path d="M16.6881 14.1678C14.3865 18.1543 9.28921 19.5201 5.30279 17.2185C4.21719 16.5918 3.30329 15.7438 2.60723 14.7331C2.3745 14.3951 2.52504 13.9284 2.91137 13.7902C6.05089 12.6664 7.73239 11.3643 8.70813 9.50175C9.73538 7.5409 10.0008 5.39302 9.28221 2.44885C9.18288 2.04173 9.50438 1.6541 9.92288 1.67655C11.2204 1.74616 12.488 2.11886 13.6374 2.78253C17.6238 5.08407 18.9896 10.1814 16.6881 14.1678ZM9.81538 10.0818C8.77263 12.0723 7.05584 13.4977 4.13416 14.6642C4.64104 15.2441 5.24392 15.7412 5.92779 16.136C9.31629 18.0923 13.6492 16.9313 15.6055 13.5428C17.562 10.1543 16.401 5.82143 13.0124 3.86506C12.2815 3.44308 11.4959 3.15973 10.6856 3.01878C11.2249 5.83877 10.877 8.05518 9.81538 10.0818Z" fill="#1A1A1A"/>
</svg>
