<svg width="20" height="20" viewBox="0 0 20 20" fill="none" xmlns="http://www.w3.org/2000/svg">
<path d="M9.99998 1.66666C11.8409 1.66666 13.3333 3.15904 13.3333 4.99999V6.66666H14.7916C15.8271 6.66666 16.6666 7.50612 16.6666 8.54166V16.4583C16.6666 17.4938 15.8271 18.3333 14.7916 18.3333H5.20831C4.17278 18.3333 3.33331 17.4938 3.33331 16.4583V8.54166C3.33331 7.50612 4.17278 6.66666 5.20831 6.66666H6.66665V4.99999C6.66665 3.15904 8.15903 1.66666 9.99998 1.66666ZM14.7916 7.91666H5.20831C4.86314 7.91666 4.58331 8.19648 4.58331 8.54166V16.4583C4.58331 16.8035 4.86314 17.0833 5.20831 17.0833H14.7916C15.1368 17.0833 15.4166 16.8035 15.4166 16.4583V8.54166C15.4166 8.19648 15.1368 7.91666 14.7916 7.91666ZM10.0001 11.25C10.6905 11.25 11.2501 11.8097 11.2501 12.5C11.2501 13.1903 10.6905 13.75 10.0001 13.75C9.30973 13.75 8.75006 13.1903 8.75006 12.5C8.75006 11.8097 9.30973 11.25 10.0001 11.25ZM9.99998 2.91666C8.8494 2.91666 7.91665 3.8494 7.91665 4.99999V6.66666H12.0833V4.99999C12.0833 3.8494 11.1506 2.91666 9.99998 2.91666Z" fill="#1A1A1A"/>
</svg>
