<svg width="20" height="20" viewBox="0 0 20 20" fill="none" xmlns="http://www.w3.org/2000/svg">
<path d="M8.33332 2.29166C11.6701 2.29166 14.375 4.99661 14.375 8.33332C14.375 9.77657 13.8689 11.1016 13.0246 12.1407L17.1086 16.2247C17.3527 16.4688 17.3527 16.8645 17.1086 17.1086C16.8867 17.3305 16.5395 17.3507 16.2948 17.1691L16.2247 17.1086L12.1407 13.0246C11.1016 13.8689 9.77657 14.375 8.33332 14.375C4.99661 14.375 2.29166 11.6701 2.29166 8.33332C2.29166 4.99661 4.99661 2.29166 8.33332 2.29166ZM8.33332 3.54166C5.68696 3.54166 3.54166 5.68696 3.54166 8.33332C3.54166 10.9797 5.68696 13.125 8.33332 13.125C10.9797 13.125 13.125 10.9797 13.125 8.33332C13.125 5.68696 10.9797 3.54166 8.33332 3.54166Z" fill="#1A1A1A"/>
</svg>
