<svg width="20" height="20" viewBox="0 0 20 20" fill="none" xmlns="http://www.w3.org/2000/svg">
<path d="M16.4618 9.16667C16.7782 9.16667 17.0397 9.40184 17.0811 9.70684L17.0868 9.79167V15.6258C17.0868 17.0699 15.9564 18.2501 14.5322 18.3298L14.3785 18.3341H5.21178C3.76759 18.3341 2.58741 17.2037 2.50774 15.7794L2.50345 15.6258V9.79167C2.50345 9.44651 2.78327 9.16667 3.12845 9.16667C3.44487 9.16667 3.70636 9.40184 3.74774 9.70684L3.75345 9.79167V15.6258C3.75345 16.3908 4.34271 17.0184 5.09217 17.0793L5.21178 17.0841H14.3785C15.1436 17.0841 15.7711 16.4948 15.8319 15.7453L15.8368 15.6258V9.79167C15.8368 9.44651 16.1166 9.16667 16.4618 9.16667ZM5.18295 6.01359L9.34649 1.84975C9.56824 1.62797 9.91524 1.60767 10.1599 1.78894L10.23 1.84936L14.4007 6.01321C14.645 6.25709 14.6453 6.65281 14.4015 6.8971C14.1797 7.11916 13.8326 7.13962 13.5877 6.95828L13.5176 6.89782L10.4151 3.80084L10.4158 13.5458C10.4158 13.8622 10.1807 14.1237 9.87566 14.1651L9.79082 14.1708C9.47441 14.1708 9.21291 13.9357 9.17157 13.6306L9.16582 13.5458L9.16507 3.79834L6.06687 6.89744C5.84498 7.11934 5.49777 7.13952 5.25308 6.95799L5.18298 6.89747C4.96108 6.6756 4.9409 6.32837 5.12243 6.08369L5.18295 6.01359L9.34649 1.84975L5.18295 6.01359Z" fill="#1A1A1A"/>
</svg>
