<svg width="20" height="20" viewBox="0 0 20 20" fill="none" xmlns="http://www.w3.org/2000/svg">
<path d="M9.99996 1.66666C10.3451 1.66666 10.625 1.94649 10.625 2.29166V3.54166C10.625 3.88684 10.3451 4.16666 9.99996 4.16666C9.65479 4.16666 9.37496 3.88684 9.37496 3.54166V2.29166C9.37496 1.94649 9.65479 1.66666 9.99996 1.66666ZM9.99996 14.1667C12.3011 14.1667 14.1666 12.3012 14.1666 10C14.1666 7.69881 12.3011 5.83333 9.99996 5.83333C7.69878 5.83333 5.83329 7.69881 5.83329 10C5.83329 12.3012 7.69878 14.1667 9.99996 14.1667ZM9.99996 12.9167C8.38913 12.9167 7.08329 11.6108 7.08329 10C7.08329 8.38916 8.38913 7.08333 9.99996 7.08333C11.6108 7.08333 12.9166 8.38916 12.9166 10C12.9166 11.6108 11.6108 12.9167 9.99996 12.9167ZM17.7083 10.625C18.0535 10.625 18.3333 10.3452 18.3333 10C18.3333 9.65483 18.0535 9.375 17.7083 9.375H16.4583C16.1131 9.375 15.8333 9.65483 15.8333 10C15.8333 10.3452 16.1131 10.625 16.4583 10.625H17.7083ZM9.99996 15.8333C10.3451 15.8333 10.625 16.1132 10.625 16.4583V17.7083C10.625 18.0535 10.3451 18.3333 9.99996 18.3333C9.65479 18.3333 9.37496 18.0535 9.37496 17.7083V16.4583C9.37496 16.1132 9.65479 15.8333 9.99996 15.8333ZM3.54163 10.625C3.8868 10.625 4.16663 10.3452 4.16663 10C4.16663 9.65483 3.8868 9.375 3.54163 9.375H2.29163C1.94645 9.375 1.66663 9.65483 1.66663 10C1.66663 10.3452 1.94645 10.625 2.29163 10.625H3.54163ZM3.51635 3.5167C3.76043 3.27262 4.15616 3.27262 4.40023 3.5167L5.65023 4.7667C5.89431 5.01078 5.89431 5.40651 5.65023 5.65058C5.40616 5.89466 5.01043 5.89466 4.76635 5.65058L3.51635 4.40058C3.27228 4.15651 3.27228 3.76078 3.51635 3.5167ZM4.40023 16.4839C4.15616 16.728 3.76043 16.728 3.51635 16.4839C3.27228 16.2398 3.27228 15.8441 3.51635 15.6L4.76635 14.35C5.01043 14.1059 5.40616 14.1059 5.65023 14.35C5.89431 14.5941 5.89431 14.9898 5.65023 15.2339L4.40023 16.4839ZM16.4835 3.5167C16.2395 3.27262 15.8438 3.27262 15.5997 3.5167L14.3497 4.7667C14.1056 5.01078 14.1056 5.40651 14.3497 5.65058C14.5938 5.89466 14.9895 5.89466 15.2335 5.65058L16.4835 4.40058C16.7276 4.15651 16.7276 3.76078 16.4835 3.5167ZM15.5997 16.4839C15.8438 16.728 16.2395 16.728 16.4835 16.4839C16.7276 16.2398 16.7276 15.8441 16.4835 15.6L15.2335 14.35C14.9895 14.1059 14.5938 14.1059 14.3497 14.35C14.1056 14.5941 14.1056 14.9898 14.3497 15.2339L15.5997 16.4839Z" fill="#1A1A1A"/>
</svg>
