<svg width="20" height="20" viewBox="0 0 20 20" fill="none" xmlns="http://www.w3.org/2000/svg">
<path d="M14.7951 11.6668C15.8301 11.6668 16.6691 12.5058 16.6691 13.5409V14.0204C16.6691 14.7657 16.4027 15.4863 15.9182 16.0525C14.6103 17.5804 12.6211 18.3344 9.99991 18.3344C7.37834 18.3344 5.39 17.5802 4.08475 16.0516C3.60162 15.4858 3.33618 14.7662 3.33618 14.0222V13.5409C3.33618 12.5058 4.17522 11.6668 5.21024 11.6668H14.7951ZM14.7951 12.9168H5.21024C4.86558 12.9168 4.58618 13.1962 4.58618 13.5409V14.0222C4.58618 14.4687 4.74544 14.9004 5.03532 15.2398C6.07974 16.4629 7.71797 17.0844 9.99991 17.0844C12.2818 17.0844 13.9215 16.4629 14.9686 15.2397C15.2593 14.8999 15.4191 14.4675 15.4191 14.0204V13.5409C15.4191 13.1962 15.1397 12.9168 14.7951 12.9168ZM9.99991 1.67073C12.3011 1.67073 14.1666 3.53621 14.1666 5.8374C14.1666 8.13859 12.3011 10.0041 9.99991 10.0041C7.69871 10.0041 5.83323 8.13859 5.83323 5.8374C5.83323 3.53621 7.69871 1.67073 9.99991 1.67073ZM9.99991 2.92073C8.38908 2.92073 7.08323 4.22657 7.08323 5.8374C7.08323 7.44823 8.38908 8.75408 9.99991 8.75408C11.6107 8.75408 12.9166 7.44823 12.9166 5.8374C12.9166 4.22657 11.6107 2.92073 9.99991 2.92073Z" fill="#1A1A1A"/>
</svg>
