<svg width="24" height="24" viewBox="0 0 24 24" fill="none" xmlns="http://www.w3.org/2000/svg">
<path d="M0 11.52C0 6.08942 1.19209e-07 3.37413 1.68707 1.68707C3.37413 0 6.08942 0 11.52 0H12.48C17.9106 0 20.6259 0 22.3129 1.68707C24 3.37413 24 6.08942 24 11.52V12.48C24 17.9106 24 20.6259 22.3129 22.3129C20.6259 24 17.9106 24 12.48 24H11.52C6.08942 24 3.37413 24 1.68707 22.3129C1.19209e-07 20.6259 0 17.9106 0 12.48V11.52Z" fill="#0077FF"/>
<path d="M12.8126 17.3501C7.40768 17.3501 4.12848 13.5931 4 7.3501H6.73746C6.82279 11.9361 8.90537 13.8794 10.5018 14.279V7.3501H13.1252V11.3078C14.6651 11.1368 16.2769 9.33665 16.8186 7.3501H19.4007C18.9875 9.79294 17.2328 11.5931 15.9931 12.3357C17.2338 12.9361 19.2301 14.5076 20 17.3501H17.1619C16.5626 15.45 15.0946 13.9783 13.1261 13.7785V17.3501H12.8126Z" fill="white"/>
</svg>
