<svg width="24" height="24" viewBox="0 0 24 24" fill="none" xmlns="http://www.w3.org/2000/svg">
<path d="M1.72878 9.54342C-0.57626 11.8505 -0.57626 15.591 1.72878 17.898C3.75956 19.9307 6.90199 20.1725 9.1973 18.6235L14.2977 23.7284C14.6596 24.0905 15.2461 24.0905 15.608 23.7284C15.9369 23.3991 15.9669 22.8839 15.6977 22.5209L15.608 22.4169L10.5545 17.3577C12.3682 15.0397 12.2087 11.678 10.076 9.54342C7.77102 7.23635 4.03381 7.23635 1.72878 9.54342ZM12.0154 0C6.31708 0 1.54761 3.9804 0.331111 9.3148C0.500163 9.09987 0.683763 8.89323 0.881467 8.69537C1.51456 8.06171 2.23746 7.57272 3.00916 7.22841C4.13917 5.09061 6.0088 3.40351 8.27678 2.50751L8.14875 2.71631C7.50464 3.788 6.98507 5.12853 6.62076 6.64911C7.21855 6.71064 7.80855 6.84641 8.37696 7.05748C9.13406 3.90616 10.5613 1.799 12.0154 1.799L12.154 1.80535C13.6704 1.94418 15.1351 4.3452 15.8155 7.79715L9.8269 7.79627C10.2143 8.05387 10.5819 8.35357 10.9233 8.69537C11.2055 8.97779 11.4593 9.27858 11.6844 9.59402L16.0859 9.5958C16.1673 10.3637 16.2112 11.1669 16.2112 11.9952C16.2112 13.2659 16.108 14.4775 15.924 15.5933L12.7541 15.5934C12.6609 15.9361 12.5415 16.2733 12.3958 16.6022L12.2413 16.928L12.0944 17.2031L12.2844 17.3914L15.5371 17.3918C15.2948 18.2895 14.9971 19.092 14.6604 19.7719L15.9851 21.1004C16.5745 20.0713 17.0538 18.8113 17.3977 17.393L20.6602 17.392C19.5938 19.0995 18.0364 20.4683 16.186 21.3005L16.4554 21.569L16.6047 21.7372C16.8688 22.0913 17.018 22.4858 17.0578 22.8798C21.157 20.9752 24 16.8174 24 11.9952C24 5.37042 18.6344 0 12.0154 0ZM8.76575 10.8548C10.3471 12.4376 10.3471 15.0038 8.76575 16.5866C7.18437 18.1693 4.62046 18.1693 3.0391 16.5866C1.45773 15.0038 1.45773 12.4376 3.0391 10.8548C4.62046 9.27213 7.18437 9.27213 8.76575 10.8548ZM17.8949 9.59657L21.9182 9.59573L21.9276 9.63189C22.1074 10.3903 22.2026 11.1817 22.2026 11.9952C22.2026 13.2617 21.9719 14.4743 21.5502 15.5932L17.7476 15.5942C17.9181 14.4557 18.0086 13.2461 18.0086 11.9952C18.0086 11.1751 17.9698 10.3728 17.8949 9.59657ZM15.7527 2.50744L15.7802 2.5179C18.2335 3.49502 20.2179 5.39878 21.302 7.79733L17.6493 7.79665C17.2737 5.69489 16.6185 3.86517 15.7527 2.50744Z" fill="#1A1A1A"/>
</svg>
