<svg width="20" height="20" viewBox="0 0 20 20" fill="none" xmlns="http://www.w3.org/2000/svg">
<path d="M2.29401 15H17.7107C18.0558 15 18.3357 15.2798 18.3357 15.625C18.3357 15.9414 18.1006 16.2029 17.7955 16.2443L17.7107 16.25H2.29401C1.94884 16.25 1.66901 15.9702 1.66901 15.625C1.66901 15.3086 1.90415 15.0471 2.20921 15.0058L2.29401 15H17.7107H2.29401ZM2.29401 9.58584H17.7107C18.0558 9.58584 18.3357 9.86567 18.3357 10.2108C18.3357 10.5273 18.1006 10.7888 17.7955 10.8302L17.7107 10.8358H2.29401C1.94884 10.8358 1.66901 10.556 1.66901 10.2108C1.66901 9.89442 1.90415 9.63292 2.20921 9.59159L2.29401 9.58584H17.7107H2.29401ZM2.2933 4.16937H17.71C18.0552 4.16937 18.335 4.4492 18.335 4.79437C18.335 5.11079 18.0998 5.37228 17.7948 5.41367L17.71 5.41937H2.2933C1.94812 5.41937 1.6683 5.13956 1.6683 4.79437C1.6683 4.47796 1.90343 4.21646 2.20849 4.17508L2.2933 4.16937H17.71H2.2933Z" fill="#1A1A1A"/>
</svg>
