<svg width="156" height="24" viewBox="0 0 156 24" fill="none" xmlns="http://www.w3.org/2000/svg">
<path d="M5.44922 24C4.10109 24 3.42702 24 2.87708 23.8391C1.56772 23.4562 0.543828 22.4323 0.160852 21.1229C0 20.573 0 19.8989 0 18.5508V18.2799C0 16.9318 0 16.2577 0.160852 15.7078C0.543828 14.3984 1.56772 13.3745 2.87708 12.9915C3.42702 12.8307 4.10109 12.8307 5.44922 12.8307V12.8307V12.8307C6.79735 12.8307 7.47142 12.8307 8.02135 12.9915C9.33072 13.3745 10.3546 14.3984 10.7376 15.7078C10.8984 16.2577 10.8984 16.9318 10.8984 18.2799V18.5508C10.8984 19.8989 10.8984 20.573 10.7376 21.1229C10.3546 22.4323 9.33072 23.4562 8.02135 23.8391C7.47142 24 6.79735 24 5.44922 24V24ZM18.5449 24C17.1913 24 16.5145 24 15.9625 23.8379C14.6567 23.4543 13.6356 22.4331 13.252 21.1273C13.0898 20.5753 13.0898 19.8985 13.0898 18.5449V17.5405C13.0898 15.2442 13.0898 14.096 12.6324 13.2236C12.255 12.5037 11.6672 11.9159 10.9473 11.5385C10.0749 11.081 8.92672 11.081 6.63037 11.081H5.54052C4.1071 11.081 3.39038 11.081 2.80844 10.8994C1.55467 10.5082 0.572847 9.52637 0.181598 8.2726C0 7.69066 0 6.97395 0 5.54052V5.54052C0 4.1071 0 3.39038 0.181598 2.80844C0.572847 1.55467 1.55467 0.572847 2.80844 0.181598C3.39038 0 4.1071 0 5.54052 0H16C19.7712 0 21.6569 0 22.8284 1.17157C24 2.34315 24 4.22876 24 8V18.5449C24 19.8985 24 20.5753 23.8379 21.1273C23.4543 22.4331 22.4331 23.4543 21.1273 23.8379C20.5753 24 19.8985 24 18.5449 24V24Z" fill="#1A1A1A"/>
<path d="M45.005 24C46.3531 24 47.0272 24 47.5771 23.8391C48.8865 23.4562 49.9104 22.4323 50.2933 21.1229C50.4542 20.573 50.4542 19.8989 50.4542 18.5508V18.2799C50.4542 16.9318 50.4542 16.2577 50.2933 15.7078C49.9104 14.3984 48.8865 13.3745 47.5771 12.9915C47.0272 12.8307 46.3531 12.8307 45.005 12.8307V12.8307V12.8307C43.6568 12.8307 42.9828 12.8307 42.4328 12.9915C41.1235 13.3745 40.0996 14.3984 39.7166 15.7078C39.5558 16.2577 39.5558 16.9318 39.5558 18.2799V18.5508C39.5558 19.8989 39.5558 20.573 39.7166 21.1229C40.0996 22.4323 41.1235 23.4562 42.4328 23.8391C42.9828 24 43.6568 24 45.005 24V24ZM31.9093 24C33.2629 24 33.9397 24 34.4917 23.8379C35.7975 23.4543 36.8186 22.4331 37.2022 21.1273C37.3643 20.5753 37.3643 19.8985 37.3643 18.5449V17.5405C37.3643 15.2442 37.3643 14.096 37.8218 13.2236C38.1992 12.5037 38.787 11.9159 39.5069 11.5385C40.3793 11.081 41.5275 11.081 43.8238 11.081H44.9137C46.3471 11.081 47.0638 11.081 47.6458 10.8994C48.8995 10.5082 49.8813 9.52637 50.2726 8.2726C50.4542 7.69066 50.4542 6.97395 50.4542 5.54052V5.54052C50.4542 4.1071 50.4542 3.39038 50.2726 2.80844C49.8813 1.55467 48.8995 0.572847 47.6458 0.181598C47.0638 0 46.3471 0 44.9137 0H34.4542C30.683 0 28.7973 0 27.6258 1.17157C26.4542 2.34315 26.4542 4.22876 26.4542 8V18.5449C26.4542 19.8985 26.4542 20.5753 26.6163 21.1273C26.9999 22.4331 28.0211 23.4543 29.3269 23.8379C29.8789 24 30.5557 24 31.9093 24V24Z" fill="#1A1A1A"/>
<path d="M60.3081 24C58.5024 24 57.0386 22.5362 57.0386 20.7305V20.7305C57.0386 18.9248 58.5024 17.4609 60.3081 17.4609H69.0386C70.8443 17.4609 72.3081 18.9248 72.3081 20.7305V20.7305C72.3081 22.5362 70.8443 24 69.0386 24H60.3081ZM60.3198 15.2813C56.8969 15.2813 55.1854 15.2813 54.0572 14.3021C53.9151 14.1787 53.7818 14.0454 53.6584 13.9032C52.6792 12.7751 52.6792 11.0636 52.6792 7.64063V7.64063C52.6792 4.21766 52.6792 2.50617 53.6584 1.37803C53.7818 1.23586 53.9151 1.10259 54.0572 0.979195C55.1854 0 56.8969 0 60.3198 0H69.0386C72.4616 0 74.173 0 75.3012 0.979195C75.4433 1.10259 75.5766 1.23586 75.7 1.37803C76.6792 2.50617 76.6792 4.21766 76.6792 7.64063V7.64063C76.6792 11.0636 76.6792 12.7751 75.7 13.9032C75.5766 14.0454 75.4433 14.1787 75.3012 14.3021C74.173 15.2813 72.4616 15.2813 69.0386 15.2813H60.3198Z" fill="#1A1A1A"/>
<path d="M84.5179 24C83.1697 24 82.4957 24 81.9457 23.8391C80.6364 23.4562 79.6125 22.4323 79.2295 21.1229C79.0687 20.573 79.0687 19.8989 79.0687 18.5508V18.2799C79.0687 16.9318 79.0687 16.2577 79.2295 15.7078C79.6125 14.3984 80.6364 13.3745 81.9457 12.9915C82.4957 12.8307 83.1697 12.8307 84.5179 12.8307V12.8307V12.8307C85.866 12.8307 86.5401 12.8307 87.09 12.9915C88.3994 13.3745 89.4233 14.3984 89.8062 15.7078C89.9671 16.2577 89.9671 16.9318 89.9671 18.2799V18.5508C89.9671 19.8989 89.9671 20.573 89.8062 21.1229C89.4233 22.4323 88.3994 23.4562 87.09 23.8391C86.5401 24 85.866 24 84.5179 24V24ZM97.6136 24C96.26 24 95.5832 24 95.0312 23.8379C93.7254 23.4543 92.7042 22.4331 92.3206 21.1273C92.1585 20.5753 92.1585 19.8985 92.1585 18.5449V17.5405C92.1585 15.2442 92.1585 14.096 91.7011 13.2236C91.3236 12.5037 90.7358 11.9159 90.016 11.5385C89.1435 11.081 87.9954 11.081 85.699 11.081H84.6092C83.1757 11.081 82.459 11.081 81.8771 10.8994C80.6233 10.5082 79.6415 9.52637 79.2502 8.2726C79.0687 7.69066 79.0687 6.97395 79.0687 5.54052V5.54052C79.0687 4.1071 79.0687 3.39038 79.2502 2.80844C79.6415 1.55467 80.6233 0.572847 81.8771 0.181598C82.459 0 83.1757 0 84.6092 0H95.0687C98.8399 0 100.726 0 101.897 1.17157C103.069 2.34315 103.069 4.22876 103.069 8V18.5449C103.069 19.8985 103.069 20.5753 102.907 21.1273C102.523 22.4331 101.502 23.4543 100.196 23.8379C99.644 24 98.9672 24 97.6136 24V24Z" fill="#1A1A1A"/>
<path d="M124.074 24C125.422 24 126.096 24 126.646 23.8391C127.955 23.4562 128.979 22.4323 129.362 21.1229C129.523 20.573 129.523 19.8989 129.523 18.5508V18.2799C129.523 16.9318 129.523 16.2577 129.362 15.7078C128.979 14.3984 127.955 13.3745 126.646 12.9915C126.096 12.8307 125.422 12.8307 124.074 12.8307V12.8307V12.8307C122.725 12.8307 122.051 12.8307 121.501 12.9915C120.192 13.3745 119.168 14.3984 118.785 15.7078C118.624 16.2577 118.624 16.9318 118.624 18.2799V18.5508C118.624 19.8989 118.624 20.573 118.785 21.1229C119.168 22.4323 120.192 23.4562 121.501 23.8391C122.051 24 122.725 24 124.074 24V24ZM110.978 24C112.332 24 113.008 24 113.56 23.8379C114.866 23.4543 115.887 22.4331 116.271 21.1273C116.433 20.5753 116.433 19.8985 116.433 18.5449V17.5405C116.433 15.2442 116.433 14.096 116.89 13.2236C117.268 12.5037 117.856 11.9159 118.576 11.5385C119.448 11.081 120.596 11.081 122.892 11.081H123.982C125.416 11.081 126.132 11.081 126.714 10.8994C127.968 10.5082 128.95 9.52637 129.341 8.2726C129.523 7.69066 129.523 6.97395 129.523 5.54052V5.54052C129.523 4.1071 129.523 3.39038 129.341 2.80844C128.95 1.55467 127.968 0.572847 126.714 0.181598C126.132 0 125.416 0 123.982 0H113.523C109.752 0 107.866 0 106.694 1.17157C105.523 2.34315 105.523 4.22876 105.523 8V18.5449C105.523 19.8985 105.523 20.5753 105.685 21.1273C106.069 22.4331 107.09 23.4543 108.396 23.8379C108.948 24 109.624 24 110.978 24V24Z" fill="#1A1A1A"/>
<path d="M139.377 24C137.571 24 136.107 22.5362 136.107 20.7305V20.7305C136.107 18.9248 137.571 17.4609 139.377 17.4609H148.107C149.913 17.4609 151.377 18.9248 151.377 20.7305V20.7305C151.377 22.5362 149.913 24 148.107 24H139.377ZM139.388 15.2813C135.966 15.2813 134.254 15.2813 133.126 14.3021C132.984 14.1787 132.85 14.0454 132.727 13.9032C131.748 12.7751 131.748 11.0636 131.748 7.64063V7.64063C131.748 4.21766 131.748 2.50617 132.727 1.37803C132.85 1.23586 132.984 1.10259 133.126 0.979195C134.254 0 135.966 0 139.388 0H148.107C151.53 0 153.242 0 154.37 0.979195C154.512 1.10259 154.645 1.23586 154.769 1.37803C155.748 2.50617 155.748 4.21766 155.748 7.64063V7.64063C155.748 11.0636 155.748 12.7751 154.769 13.9032C154.645 14.0454 154.512 14.1787 154.37 14.3021C153.242 15.2813 151.53 15.2813 148.107 15.2813H139.388Z" fill="#1A1A1A"/>
</svg>
