<svg width="114" height="18" viewBox="0 0 114 18" fill="none" xmlns="http://www.w3.org/2000/svg">
<path d="M3.98533 17.5526C2.99936 17.5526 2.50638 17.5526 2.10418 17.4349C1.14656 17.1549 0.397733 16.406 0.11764 15.4484C0 15.0462 0 14.5532 0 13.5673V13.3692C0 12.3832 0 11.8902 0.11764 11.488C0.397733 10.5304 1.14656 9.78155 2.10418 9.50146C2.50638 9.38382 2.99936 9.38382 3.98533 9.38382V9.38382V9.38382C4.9713 9.38382 5.46428 9.38382 5.86648 9.50146C6.82409 9.78155 7.57293 10.5304 7.85302 11.488C7.97066 11.8902 7.97066 12.3832 7.97066 13.3691V13.5673C7.97066 14.5532 7.97066 15.0462 7.85302 15.4484C7.57293 16.406 6.82409 17.1549 5.86648 17.4349C5.46428 17.5526 4.9713 17.5526 3.98533 17.5526V17.5526ZM13.563 17.5526C12.573 17.5526 12.078 17.5526 11.6743 17.434C10.7193 17.1535 9.97247 16.4066 9.69195 15.4516C9.57336 15.0479 9.57336 14.5529 9.57336 13.563V12.8284C9.57336 11.1489 9.57336 10.3092 9.23882 9.67117C8.96277 9.14469 8.53288 8.7148 8.0064 8.43875C7.36836 8.10421 6.52863 8.10421 4.84917 8.10421H4.0521C3.00376 8.10421 2.47958 8.10421 2.05398 7.9714C1.13702 7.68525 0.418956 6.96719 0.132813 6.05023C0 5.62462 0 5.10045 0 4.0521V4.0521C0 3.00376 0 2.47958 0.132813 2.05398C0.418956 1.13702 1.13702 0.418956 2.05398 0.132813C2.47958 0 3.00376 0 4.0521 0H11.7017C14.4598 0 15.8389 0 16.6957 0.856839C17.5526 1.71368 17.5526 3.09274 17.5526 5.85086V13.563C17.5526 14.5529 17.5526 15.0479 17.434 15.4516C17.1535 16.4066 16.4066 17.1535 15.4516 17.434C15.0479 17.5526 14.5529 17.5526 13.563 17.5526V17.5526Z" fill="white"/>
<path d="M23.2577 17.5526C22.2717 17.5526 21.7787 17.5526 21.3765 17.4349C20.4189 17.1549 19.6701 16.406 19.39 15.4484C19.2724 15.0462 19.2724 14.5532 19.2724 13.5673V3.98533C19.2724 2.99936 19.2724 2.50638 19.39 2.10418C19.6701 1.14656 20.4189 0.397733 21.3765 0.11764C21.7787 0 22.2717 0 23.2577 0V0C24.2437 0 24.7366 0 25.1388 0.11764C26.0965 0.397733 26.8453 1.14656 27.1254 2.10418C27.243 2.50638 27.243 2.99936 27.243 3.98533V13.5673C27.243 14.5532 27.243 15.0462 27.1254 15.4484C26.8453 16.406 26.0965 17.1549 25.1388 17.4349C24.7366 17.5526 24.2437 17.5526 23.2577 17.5526V17.5526ZM32.8353 12.7702C31.8454 12.7702 31.3504 12.7702 30.9467 12.6516C29.9917 12.3711 29.2448 11.6242 28.9643 10.6692C28.8457 10.2655 28.8457 9.77055 28.8457 8.78058V3.98961C28.8457 2.99965 28.8457 2.50466 28.9643 2.10095C29.2448 1.14595 29.9917 0.399108 30.9467 0.118587C31.3504 0 31.8454 0 32.8353 0V0C33.8253 0 34.3203 0 34.724 0.118587C35.679 0.399108 36.4258 1.14595 36.7064 2.10095C36.825 2.50466 36.825 2.99965 36.825 3.98962V8.78058C36.825 9.77055 36.825 10.2655 36.7064 10.6692C36.4258 11.6242 35.679 12.3711 34.724 12.6516C34.3203 12.7702 33.8253 12.7702 32.8353 12.7702V12.7702Z" fill="white"/>
<path d="M44.1461 17.5526C42.8255 17.5526 41.7549 16.482 41.7549 15.1614V15.1614C41.7549 13.8408 42.8255 12.7702 44.1461 12.7702H50.5312C51.8519 12.7702 52.9224 13.8408 52.9224 15.1614V15.1614C52.9224 16.482 51.8519 17.5526 50.5312 17.5526H44.1461ZM44.1547 11.1761C41.6513 11.1761 40.3996 11.1761 39.5745 10.4599C39.4705 10.3697 39.3731 10.2722 39.2828 10.1682C38.5667 9.34315 38.5667 8.09145 38.5667 5.58803V5.58803C38.5667 3.08462 38.5667 1.83291 39.2828 1.00783C39.3731 0.90386 39.4705 0.806386 39.5745 0.71614C40.3996 0 41.6513 0 44.1547 0H50.5312C53.0347 0 54.2864 0 55.1114 0.71614C55.2154 0.806386 55.3129 0.90386 55.4031 1.00783C56.1193 1.83291 56.1193 3.08462 56.1193 5.58803V5.58803C56.1193 8.09145 56.1193 9.34315 55.4031 10.1682C55.3129 10.2722 55.2154 10.3697 55.1114 10.4599C54.2864 11.1761 53.0347 11.1761 50.5312 11.1761H44.1547Z" fill="white"/>
<path d="M61.8128 17.5526C60.8268 17.5526 60.3338 17.5526 59.9316 17.4349C58.974 17.1549 58.2252 16.406 57.9451 15.4484C57.8275 15.0462 57.8275 14.5532 57.8275 13.5673V13.3692C57.8275 12.3832 57.8275 11.8902 57.9451 11.488C58.2252 10.5304 58.974 9.78156 59.9316 9.50146C60.3338 9.38382 60.8268 9.38382 61.8128 9.38382V9.38382V9.38382C62.7988 9.38382 63.2918 9.38382 63.694 9.50146C64.6516 9.78155 65.4004 10.5304 65.6805 11.488C65.7981 11.8902 65.7981 12.3832 65.7981 13.3691V13.5673C65.7981 14.5532 65.7981 15.0462 65.6805 15.4484C65.4004 16.406 64.6516 17.1549 63.694 17.4349C63.2918 17.5526 62.7988 17.5526 61.8128 17.5526V17.5526ZM71.3905 17.5526C70.4005 17.5526 69.9055 17.5526 69.5018 17.434C68.5468 17.1535 67.7999 16.4066 67.5194 15.4516C67.4008 15.0479 67.4008 14.5529 67.4008 13.563V12.8284C67.4008 11.1489 67.4008 10.3092 67.0663 9.67117C66.7903 9.14469 66.3604 8.7148 65.8339 8.43875C65.1958 8.10421 64.3561 8.10421 62.6766 8.10421H61.8796C60.8312 8.10421 60.3071 8.10421 59.8815 7.9714C58.9645 7.68525 58.2464 6.96719 57.9603 6.05023C57.8275 5.62462 57.8275 5.10045 57.8275 4.0521V4.0521C57.8275 3.00376 57.8275 2.47958 57.9603 2.05398C58.2464 1.13702 58.9645 0.418956 59.8815 0.132813C60.3071 0 60.8312 0 61.8796 0H69.5292C72.2873 0 73.6664 0 74.5232 0.856839C75.3801 1.71368 75.3801 3.09274 75.3801 5.85086V13.563C75.3801 14.5529 75.3801 15.0479 75.2615 15.4516C74.981 16.4066 74.2341 17.1535 73.2791 17.434C72.8754 17.5526 72.3804 17.5526 71.3905 17.5526V17.5526Z" fill="white"/>
<path d="M81.1248 17.5526C80.1389 17.5526 79.6459 17.5526 79.2437 17.435C78.2861 17.1549 77.5372 16.406 77.2571 15.4484C77.1395 15.0462 77.1395 14.5532 77.1395 13.5673V3.98532C77.1395 2.99936 77.1395 2.50638 77.2571 2.10418C77.5372 1.14657 78.2861 0.397731 79.2437 0.117638C79.6459 0 80.1389 0 81.1248 0V0C82.1108 0 82.6038 0 83.006 0.117638C83.9636 0.397731 84.7124 1.14657 84.9925 2.10418C85.1101 2.50638 85.1101 2.99936 85.1101 3.98532V13.5673C85.1101 14.5532 85.1101 15.0462 84.9925 15.4484C84.7124 16.406 83.9636 17.1549 83.006 17.435C82.6038 17.5526 82.1108 17.5526 81.1248 17.5526V17.5526ZM90.7025 12.7702C89.7125 12.7702 89.2175 12.7702 88.8138 12.6516C87.8588 12.3711 87.112 11.6242 86.8314 10.6692C86.7128 10.2655 86.7128 9.77055 86.7128 8.78058V3.98961C86.7128 2.99965 86.7128 2.50466 86.8314 2.10095C87.112 1.14595 87.8588 0.399107 88.8138 0.118586C89.2175 0 89.7125 0 90.7025 0V0C91.6924 0 92.1874 0 92.5911 0.118586C93.5461 0.399107 94.293 1.14595 94.5735 2.10095C94.6921 2.50466 94.6921 2.99965 94.6921 3.98961V8.78059C94.6921 9.77055 94.6921 10.2655 94.5735 10.6692C94.293 11.6242 93.5461 12.3711 92.5911 12.6516C92.1874 12.7702 91.6924 12.7702 90.7025 12.7702V12.7702Z" fill="white"/>
<path d="M102.027 17.5526C100.706 17.5526 99.6357 16.482 99.6357 15.1614V15.1614C99.6357 13.8408 100.706 12.7702 102.027 12.7702H108.412C109.733 12.7702 110.803 13.8408 110.803 15.1614V15.1614C110.803 16.482 109.733 17.5526 108.412 17.5526H102.027ZM102.035 11.1761C99.532 11.1761 98.2803 11.1761 97.4552 10.4599C97.3513 10.3697 97.2538 10.2722 97.1635 10.1682C96.4474 9.34315 96.4474 8.09145 96.4474 5.58803V5.58803C96.4474 3.08462 96.4474 1.83291 97.1635 1.00783C97.2538 0.90386 97.3513 0.806386 97.4552 0.71614C98.2803 0 99.532 0 102.035 0H108.412C110.915 0 112.167 0 112.992 0.71614C113.096 0.806386 113.194 0.90386 113.284 1.00783C114 1.83291 114 3.08462 114 5.58803V5.58803C114 8.09145 114 9.34315 113.284 10.1682C113.194 10.2722 113.096 10.3697 112.992 10.4599C112.167 11.1761 110.915 11.1761 108.412 11.1761H102.035Z" fill="white"/>
</svg>
