<svg width="77" height="24" viewBox="0 0 77 24" fill="none" xmlns="http://www.w3.org/2000/svg">
<path d="M5.44922 24C4.10109 24 3.42702 24 2.87708 23.8391C1.56772 23.4562 0.543829 22.4323 0.160852 21.1229C0 20.573 0 19.8989 0 18.5508V18.2799C0 16.9318 0 16.2577 0.160852 15.7078C0.543829 14.3984 1.56772 13.3745 2.87708 12.9915C3.42702 12.8307 4.10109 12.8307 5.44922 12.8307V12.8307V12.8307C6.79735 12.8307 7.47142 12.8307 8.02135 12.9915C9.33072 13.3745 10.3546 14.3984 10.7376 15.7078C10.8984 16.2577 10.8984 16.9318 10.8984 18.2799V18.5508C10.8984 19.8989 10.8984 20.573 10.7376 21.1229C10.3546 22.4323 9.33072 23.4562 8.02135 23.8391C7.47142 24 6.79735 24 5.44922 24V24ZM18.5449 24C17.1913 24 16.5145 24 15.9625 23.8379C14.6567 23.4543 13.6356 22.4331 13.252 21.1273C13.0898 20.5753 13.0898 19.8985 13.0898 18.5449V17.5405C13.0898 15.2442 13.0898 14.096 12.6324 13.2236C12.255 12.5037 11.6672 11.9159 10.9473 11.5385C10.0749 11.081 8.92672 11.081 6.63037 11.081H5.54052C4.1071 11.081 3.39038 11.081 2.80844 10.8994C1.55467 10.5082 0.572847 9.52637 0.181598 8.2726C0 7.69066 0 6.97395 0 5.54052V5.54052C0 4.1071 0 3.39038 0.181598 2.80844C0.572847 1.55467 1.55467 0.572847 2.80844 0.181598C3.39038 0 4.1071 0 5.54052 0H16C19.7712 0 21.6569 0 22.8284 1.17157C24 2.34315 24 4.22876 24 8V18.5449C24 19.8985 24 20.5753 23.8379 21.1273C23.4543 22.4331 22.4331 23.4543 21.1273 23.8379C20.5753 24 19.8985 24 18.5449 24V24Z" fill="#1A1A1A"/>
<path d="M45.005 24C46.3531 24 47.0272 24 47.5771 23.8391C48.8865 23.4562 49.9104 22.4323 50.2933 21.1229C50.4542 20.573 50.4542 19.8989 50.4542 18.5508V18.2799C50.4542 16.9318 50.4542 16.2577 50.2933 15.7078C49.9104 14.3984 48.8865 13.3745 47.5771 12.9915C47.0272 12.8307 46.3531 12.8307 45.005 12.8307V12.8307V12.8307C43.6568 12.8307 42.9828 12.8307 42.4328 12.9915C41.1235 13.3745 40.0996 14.3984 39.7166 15.7078C39.5558 16.2577 39.5558 16.9318 39.5558 18.2799V18.5508C39.5558 19.8989 39.5558 20.573 39.7166 21.1229C40.0996 22.4323 41.1235 23.4562 42.4328 23.8391C42.9828 24 43.6568 24 45.005 24V24ZM31.9093 24C33.2629 24 33.9397 24 34.4917 23.8379C35.7975 23.4543 36.8186 22.4331 37.2022 21.1273C37.3644 20.5753 37.3644 19.8985 37.3644 18.5449V17.5405C37.3644 15.2442 37.3644 14.096 37.8218 13.2236C38.1992 12.5037 38.787 11.9159 39.5069 11.5385C40.3793 11.081 41.5275 11.081 43.8238 11.081H44.9137C46.3471 11.081 47.0638 11.081 47.6458 10.8994C48.8995 10.5082 49.8814 9.52637 50.2726 8.2726C50.4542 7.69066 50.4542 6.97395 50.4542 5.54052V5.54052C50.4542 4.1071 50.4542 3.39038 50.2726 2.80844C49.8814 1.55467 48.8995 0.572847 47.6458 0.181598C47.0638 0 46.3471 0 44.9137 0H34.4542C30.683 0 28.7973 0 27.6258 1.17157C26.4542 2.34315 26.4542 4.22876 26.4542 8V18.5449C26.4542 19.8985 26.4542 20.5753 26.6163 21.1273C26.9999 22.4331 28.0211 23.4543 29.3269 23.8379C29.8789 24 30.5557 24 31.9093 24V24Z" fill="#1A1A1A"/>
<path d="M60.3081 24C58.5024 24 57.0386 22.5362 57.0386 20.7305V20.7305C57.0386 18.9248 58.5024 17.4609 60.3081 17.4609H69.0386C70.8443 17.4609 72.3081 18.9248 72.3081 20.7305V20.7305C72.3081 22.5362 70.8443 24 69.0386 24H60.3081ZM60.3198 15.2813C56.8969 15.2813 55.1854 15.2813 54.0572 14.3021C53.9151 14.1787 53.7818 14.0454 53.6584 13.9032C52.6792 12.7751 52.6792 11.0636 52.6792 7.64063V7.64063C52.6792 4.21766 52.6792 2.50617 53.6584 1.37803C53.7818 1.23586 53.9151 1.10259 54.0572 0.979195C55.1854 0 56.8969 0 60.3198 0H69.0386C72.4616 0 74.173 0 75.3012 0.979195C75.4433 1.10259 75.5766 1.23586 75.7 1.37803C76.6792 2.50617 76.6792 4.21766 76.6792 7.64063V7.64063C76.6792 11.0636 76.6792 12.7751 75.7 13.9032C75.5766 14.0454 75.4433 14.1787 75.3012 14.3021C74.173 15.2813 72.4616 15.2813 69.0386 15.2813H60.3198Z" fill="#1A1A1A"/>
</svg>
